<svg width="16" height="19" viewBox="0 0 16 19" fill="none" xmlns="http://www.w3.org/2000/svg">
    <path d="M14.0625 0.25C14.9414 0.25 15.75 1.05859 15.75 1.9375V16.5625C15.75 17.4766 14.9414 18.25 14.0625 18.25H1.6875C0.773438 18.25 0 17.4766 0 16.5625V1.9375C0 1.05859 0.773438 0.25 1.6875 0.25H14.0625ZM4.5 15.5781V14.207C4.5 13.9961 4.25391 13.75 4.04297 13.75H2.67188C2.46094 13.75 2.25 13.9961 2.25 14.207V15.5781C2.25 15.7891 2.46094 16 2.67188 16H4.04297C4.25391 16 4.5 15.7891 4.5 15.5781ZM4.5 11.0781V9.70703C4.5 9.49609 4.25391 9.25 4.04297 9.25H2.67188C2.46094 9.25 2.25 9.49609 2.25 9.70703V11.0781C2.25 11.2891 2.46094 11.5 2.67188 11.5H4.04297C4.25391 11.5 4.5 11.2891 4.5 11.0781ZM9 15.5781V14.207C9 13.9961 8.75391 13.75 8.54297 13.75H7.17188C6.96094 13.75 6.75 13.9961 6.75 14.207V15.5781C6.75 15.7891 6.96094 16 7.17188 16H8.54297C8.75391 16 9 15.7891 9 15.5781ZM9 11.0781V9.70703C9 9.49609 8.75391 9.25 8.54297 9.25H7.17188C6.96094 9.25 6.75 9.49609 6.75 9.70703V11.0781C6.75 11.2891 6.96094 11.5 7.17188 11.5H8.54297C8.75391 11.5 9 11.2891 9 11.0781ZM13.5 15.5781V9.70703C13.5 9.49609 13.2539 9.25 13.043 9.25H11.6719C11.4609 9.25 11.25 9.49609 11.25 9.70703V15.5781C11.25 15.7891 11.4609 16 11.6719 16H13.043C13.2539 16 13.5 15.7891 13.5 15.5781ZM13.5 6.57812V2.95703C13.5 2.74609 13.2539 2.5 13.043 2.5H2.67188C2.46094 2.5 2.25 2.74609 2.25 2.95703V6.57812C2.25 6.78906 2.46094 7 2.67188 7H13.043C13.2539 7 13.5 6.78906 13.5 6.57812Z" fill="#262626"/>
</svg>
